<svg width="220" height="138.70013128272114" viewBox="0 -5 220 138.70013128272114" class="css-1j8o68f"><defs id="SvgjsDefs4134"></defs><g id="SvgjsG4135" featurekey="symbolFeature-0" transform="matrix(0.9099999999999999,0,0,0.9099999999999999,65,-5.91)" fill="#3970c4"><g xmlns="http://www.w3.org/2000/svg"><path d="M89,12H67v2h22c5.5,0,9,3.5,9,9c0,5-4,9-9,9H11C4.9,32,0,36.9,0,43c0,6.6,4.4,11,11,11h31.1c-2.5,2.2-4.1,5.4-4.1,9v2h-9.8   v30c0,3.3,2.7,6,6,6h32c3.3,0,6-2.7,6-6V65H62v-2c0-6.6-5.4-12-12-12c-1.7,0-3.3,0.4-4.8,1H11c-5.5,0-9-3.5-9-9c0-5,4-9,9-9h78   c6.1,0,11-4.9,11-11C100,16.4,95.6,12,89,12z M50,55c4.4,0,8,3.6,8,8v2H42v-2C42,58.6,45.6,55,50,55z"></path><g><path d="M67,3v9h-4.3c-0.3-0.6-1-1-1.7-1h-1c-0.7,0-1.4,0.4-1.7,1h-4.1V1H65C66.1,1,67,1.9,67,3z"></path><path d="M52.2,1v24H45c-6.6,0-12-5.4-12-12S38.4,1,45,1H52.2z"></path><path d="M67,14v9c0,1.1-0.9,2-2,2H54.2V14h4.1c0.3,0.6,1,1,1.7,1h1c0.7,0,1.4-0.4,1.7-1H67z"></path></g></g></g><g id="SvgjsG4136" featurekey="nameFeature-0" transform="matrix(0.981296993517469,0,0,0.981296993517469,-3.2755434528859806,94.42597860382266)" fill="#3970c4"><path d="M34.859 35.3 l0.080272 4.6484 l-2.3241 0.04004 c-0.030078 0.0005078 -2.055 0.034258 -6.0152 0.034258 c-2.0063 0 -4.5092 -0.0089064 -7.5012 -0.034805 c-4.8264 -0.042108 -8.6856 -1.0842 -11.47 -3.0979 c-2.767 -2.0014 -4.2908 -4.9124 -4.2908 -8.1972 c0 -3.2826 1.5371 -6.2004 4.328 -8.2148 c2.766 -1.9969 6.7232 -3.0621 11.444 -3.0804 c8.882 -0.034258 13.438 0.00054688 13.483 0.00082032 l2.3244 0.01832 l-0.036641 4.6492 l-2.3244 -0.01832 c-0.044728 -0.0005078 -4.5784 -0.035039 -13.429 -0.00078124 c-6.8716 0.02668 -11.14 2.5732 -11.14 6.6464 c0 1.8039 0.79624 3.2946 2.3662 4.43 c1.9587 1.4167 4.9968 2.1832 8.7852 2.2161 c8.8288 0.077148 13.352 0.0017969 13.396 0.0010156 z M70.315 35.114 l2.324 -0.034844 l0.069572 4.6484 l-2.3241 0.034805 c-0.36176 0.005508 -0.77084 0.011797 -1.2174 0.011797 c-3.2279 0 -8.4052 -0.32016 -11.676 -3.5423 c-1.456 -1.4345 -2.3731 -3.258 -2.7396 -5.44 l-8.4109 0 l-0.033203 8.9792 l-4.6492 -0.017266 l0.074804 -20.255 l0 -2.327 l0.0086328 0 l0 -0.0086328 l2.3223 0.0086328 l21.902 0 c2.9457 0 7.3276 1.8136 7.3276 6.8096 c0 4.9964 -4.0724 6.81 -6.8096 6.81 l-6.9651 0 c0.25086 0.8504 0.65684 1.5585 1.2347 2.1279 c2.337 2.3019 7.216 2.2292 9.5608 2.1939 z M46.3828 26.143 l20.081 -0.000039062 c0.20297 -0.0070704 0.80852 -0.083436 1.3076 -0.35942 c0.43216 -0.2391 0.87372 -0.64012 0.87372 -1.8015 c0 -0.93384 -0.31598 -1.4394 -1.1276 -1.8033 c-0.73764 -0.33062 -1.543 -0.3573 -1.5506 -0.3573 l-19.584 0 l0 4.3216 z M111.86000000000001 16.89 l0.033516 2.3475 c0.036641 2.5258 -0.98144 4.978 -2.8667 6.9048 c-1.7693 1.8086 -5.0244 3.9321 -10.734 4.4284 l-0.073516 9.2524 l-4.6952 -0.032188 l0.072968 -9.1988 c-4.4648 -0.36281 -8.18 -1.8598 -10.617 -4.3144 c-1.9467 -1.9608 -2.9982 -4.4612 -2.9608 -7.0404 l0.034258 -2.3474 l4.6948 0.06828 l-0.034024 2.3474 c-0.019102 1.3246 0.53336 2.5918 1.5982 3.664 c1.9606 1.9747 5.3816 3.0474 9.6268 3.014 c4.3352 -0.031641 7.7912 -1.1413 9.7316 -3.1248 c1.0183 -1.0406 1.5464 -2.2692 1.5279 -3.553 l-0.034024 -2.3474 z M143.168 16.95 c2.9747 0 7.4 1.8319 7.4 6.8776 s-4.1128 6.8776 -6.8776 6.8776 l-20.344 0 l-0.033476 9.0684 l-4.6952 -0.017539 l0.075588 -20.455 l0 -2.3514 l0.0086328 0 l0 -0.0086328 l2.3477 0.0086328 l22.118 0 z M144.99099999999999 25.647 c0.43632 -0.24144 0.8826 -0.64608 0.88236 -1.819 c0 -0.94328 -0.31914 -1.4539 -1.139 -1.8214 c-0.745 -0.33402 -1.5585 -0.36098 -1.5661 -0.36098 l-19.779 0 l0 4.3645 l20.281 0 c0.2048 -0.0070704 0.81636 -0.08422 1.3204 -0.36305 z M157.25850000000003 16.95 l31.875 0 l0 4.6954 l-13.591 0 l0 18.186 l-4.6951 0 l0 -18.186 l-13.589 0 l0 -4.6954 z M225.729 19.299 c1.8355 1.8198 1.8204 4.452 1.7971 8.4364 c-0.0018359 0.29664 -0.0033984 0.604 -0.0046876 0.92236 c-0.0089064 2.3647 -0.015195 4.0732 -0.26344 5.514 c-0.21137 1.2284 -0.69948 2.9991 -2.4872 4.1908 c-2.2642 1.5093 -5.6464 1.5434 -13.056 1.6174 c-1.1572 0.011524 -2.2245 0.020156 -3.2091 0.020156 c-5.8708 0 -8.822 -0.31074 -10.708 -2.1844 c-1.964 -1.9514 -1.953 -4.8252 -1.9368 -9.1752 c0.018047 -4.8536 0.029024 -7.7832 2.4894 -9.602 c2.1227 -1.569 5.2056 -1.6103 11.96 -1.7011 l1.3479 -0.018555 c8.4176 -0.12031 11.902 -0.17027 14.071 1.9805 z M222.863 27.708 c0.013086 -2.2896 0.026914 -4.6576 -0.41728 -5.0976 c-0.55112 -0.54644 -3.0246 -0.67276 -6.3168 -0.67276 c-1.3547 0 -2.8484 0.021445 -4.4036 0.043672 l-1.3521 0.018555 c-4.8388 0.064884 -8.3348 0.11195 -9.25 0.78812 c-0.5776 0.42692 -0.587 2.9488 -0.59796 5.8692 c-0.010195 2.7118 -0.019883 5.2732 0.56032 5.8496 c0.9108 0.90508 5.8276 0.85564 10.583 0.80856 c5.4604 -0.054412 9.4056 -0.093908 10.516 -0.8342 c0.65372 -0.4358 0.66208 -2.7032 0.67384 -5.8416 c0.0010547 -0.32148 0.0028906 -0.632 0.0047264 -0.93176 z"></path></g></svg>