<?xml version="1.0" encoding="UTF-8"?>
<svg class="css-1j8o68f" width="220" height="138.7" viewBox="0 -5 220 138.7" xmlns="http://www.w3.org/2000/svg">
<g transform="matrix(.91 0 0 .91 65 -5.91)" fill="#3970c4" featurekey="symbolFeature-0">
<g xmlns="http://www.w3.org/2000/svg">
<path d="m89 12h-22v2h22c5.5 0 9 3.5 9 9 0 5-4 9-9 9h-78c-6.1 0-11 4.9-11 11 0 6.6 4.4 11 11 11h31.1c-2.5 2.2-4.1 5.4-4.1 9v2h-9.8v30c0 3.3 2.7 6 6 6h32c3.3 0 6-2.7 6-6v-30h-10.2v-2c0-6.6-5.4-12-12-12-1.7 0-3.3 0.4-4.8 1h-34.2c-5.5 0-9-3.5-9-9 0-5 4-9 9-9h78c6.1 0 11-4.9 11-11 0-6.6-4.4-11-11-11zm-39 43c4.4 0 8 3.6 8 8v2h-16v-2c0-4.4 3.6-8 8-8z"/>
<path d="M67,3v9h-4.3c-0.3-0.6-1-1-1.7-1h-1c-0.7,0-1.4,0.4-1.7,1h-4.1V1H65C66.1,1,67,1.9,67,3z"/>
<path d="M52.2,1v24H45c-6.6,0-12-5.4-12-12S38.4,1,45,1H52.2z"/>
<path d="M67,14v9c0,1.1-0.9,2-2,2H54.2V14h4.1c0.3,0.6,1,1,1.7,1h1c0.7,0,1.4-0.4,1.7-1H67z"/>
</g>
</g>
<g transform="matrix(.9813 0 0 .9813 -3.2755 94.426)" fill="#3970c4" featurekey="nameFeature-0">
<path d="m34.859 35.3 0.080272 4.6484-2.3241 0.04004c-0.030078 5.078e-4 -2.055 0.034258-6.0152 0.034258-2.0063 0-4.5092-0.0089064-7.5012-0.034805-4.8264-0.042108-8.6856-1.0842-11.47-3.0979-2.767-2.0014-4.2908-4.9124-4.2908-8.1972 0-3.2826 1.5371-6.2004 4.328-8.2148 2.766-1.9969 6.7232-3.0621 11.444-3.0804 8.882-0.034258 13.438 5.4688e-4 13.483 8.2032e-4l2.3244 0.01832-0.036641 4.6492-2.3244-0.01832c-0.044728-5.078e-4 -4.5784-0.035039-13.429-7.8124e-4 -6.8716 0.02668-11.14 2.5732-11.14 6.6464 0 1.8039 0.79624 3.2946 2.3662 4.43 1.9587 1.4167 4.9968 2.1832 8.7852 2.2161 8.8288 0.077148 13.352 0.0017969 13.396 0.0010156zm35.456-0.186 2.324-0.034844 0.069572 4.6484-2.3241 0.034805c-0.36176 0.005508-0.77084 0.011797-1.2174 0.011797-3.2279 0-8.4052-0.32016-11.676-3.5423-1.456-1.4345-2.3731-3.258-2.7396-5.44h-8.4109l-0.033203 8.9792-4.6492-0.017266 0.074804-20.255v-2.327h0.0086328v-0.0086328l2.3223 0.0086328h21.902c2.9457 0 7.3276 1.8136 7.3276 6.8096 0 4.9964-4.0724 6.81-6.8096 6.81h-6.9651c0.25086 0.8504 0.65684 1.5585 1.2347 2.1279 2.337 2.3019 7.216 2.2292 9.5608 2.1939zm-23.932-8.971 20.081-3.9062e-5c0.20297-0.0070704 0.80852-0.083436 1.3076-0.35942 0.43216-0.2391 0.87372-0.64012 0.87372-1.8015 0-0.93384-0.31598-1.4394-1.1276-1.8033-0.73764-0.33062-1.543-0.3573-1.5506-0.3573h-19.584v4.3216zm65.477-9.253 0.033516 2.3475c0.036641 2.5258-0.98144 4.978-2.8667 6.9048-1.7693 1.8086-5.0244 3.9321-10.734 4.4284l-0.073516 9.2524-4.6952-0.032188 0.072968-9.1988c-4.4648-0.36281-8.18-1.8598-10.617-4.3144-1.9467-1.9608-2.9982-4.4612-2.9608-7.0404l0.034258-2.3474 4.6948 0.06828-0.034024 2.3474c-0.019102 1.3246 0.53336 2.5918 1.5982 3.664 1.9606 1.9747 5.3816 3.0474 9.6268 3.014 4.3352-0.031641 7.7912-1.1413 9.7316-3.1248 1.0183-1.0406 1.5464-2.2692 1.5279-3.553l-0.034024-2.3474zm31.308 0.06c2.9747 0 7.4 1.8319 7.4 6.8776s-4.1128 6.8776-6.8776 6.8776h-20.344l-0.033476 9.0684-4.6952-0.017539 0.075588-20.455v-2.3514h0.0086328v-0.0086328l2.3477 0.0086328h22.118zm1.823 8.697c0.43632-0.24144 0.8826-0.64608 0.88236-1.819 0-0.94328-0.31914-1.4539-1.139-1.8214-0.745-0.33402-1.5585-0.36098-1.5661-0.36098h-19.779v4.3645h20.281c0.2048-0.0070704 0.81636-0.08422 1.3204-0.36305zm12.268-8.697h31.875v4.6954h-13.591v18.186h-4.6951v-18.186h-13.589v-4.6954zm68.47 2.349c1.8355 1.8198 1.8204 4.452 1.7971 8.4364-0.0018359 0.29664-0.0033984 0.604-0.0046876 0.92236-0.0089064 2.3647-0.015195 4.0732-0.26344 5.514-0.21137 1.2284-0.69948 2.9991-2.4872 4.1908-2.2642 1.5093-5.6464 1.5434-13.056 1.6174-1.1572 0.011524-2.2245 0.020156-3.2091 0.020156-5.8708 0-8.822-0.31074-10.708-2.1844-1.964-1.9514-1.953-4.8252-1.9368-9.1752 0.018047-4.8536 0.029024-7.7832 2.4894-9.602 2.1227-1.569 5.2056-1.6103 11.96-1.7011l1.3479-0.018555c8.4176-0.12031 11.902-0.17027 14.071 1.9805zm-2.866 8.409c0.013086-2.2896 0.026914-4.6576-0.41728-5.0976-0.55112-0.54644-3.0246-0.67276-6.3168-0.67276-1.3547 0-2.8484 0.021445-4.4036 0.043672l-1.3521 0.018555c-4.8388 0.064884-8.3348 0.11195-9.25 0.78812-0.5776 0.42692-0.587 2.9488-0.59796 5.8692-0.010195 2.7118-0.019883 5.2732 0.56032 5.8496 0.9108 0.90508 5.8276 0.85564 10.583 0.80856 5.4604-0.054412 9.4056-0.093908 10.516-0.8342 0.65372-0.4358 0.66208-2.7032 0.67384-5.8416 0.0010547-0.32148 0.0028906-0.632 0.0047264-0.93176z"/>
</g>
</svg>
